<?xml version="1.0" encoding="utf-8"?>
<!-- Generator: Adobe Illustrator 22.0.1, SVG Export Plug-In . SVG Version: 6.00 Build 0)  -->
<svg version="1.1" id="Layer_1" xmlns="http://www.w3.org/2000/svg" xmlns:xlink="http://www.w3.org/1999/xlink" x="0px" y="0px"
	 viewBox="0 0 631.1 220.9" style="enable-background:new 0 0 631.1 220.9;" xml:space="preserve">
<style type="text/css">
	.st0{fill:#FFFFFF;}
</style>
<title>SoftUniKids_Logo_Oneline</title>
<g id="Layer_2_1_">
	<g id="Layer_1-2">
		<path class="st0" d="M357.4,49.5c-0.4,0.7-0.9,1.2-1.5,1.7c-0.6,0.4-1.3,0.6-2,0.6c-0.8,0-1.6-0.3-2.3-0.7l-2.8-1.5
			c-1.2-0.6-2.4-1.1-3.6-1.5c-1.5-0.5-3.1-0.7-4.6-0.7c-3,0-5.2,0.6-6.7,1.9c-1.5,1.3-2.3,3.2-2.2,5.2c0,1.3,0.4,2.5,1.3,3.5
			c1,1,2.2,1.8,3.5,2.4c1.6,0.7,3.3,1.3,4.9,1.8c1.8,0.6,3.7,1.2,5.6,1.8c1.9,0.7,3.8,1.5,5.6,2.4c1.8,0.9,3.5,2.1,4.9,3.5
			c1.5,1.5,2.7,3.2,3.5,5.2c0.9,2.3,1.4,4.8,1.3,7.3c0,3.1-0.5,6.1-1.6,8.9c-1.1,2.7-2.7,5.2-4.8,7.2c-2.2,2.1-4.9,3.8-7.8,4.9
			c-3.3,1.2-6.9,1.8-10.5,1.8c-2.2,0-4.4-0.2-6.5-0.7c-2.2-0.4-4.4-1.1-6.5-1.9c-2-0.8-4-1.7-5.9-2.9c-1.7-1-3.3-2.3-4.8-3.7
			l4.7-7.5c0.4-0.6,0.9-1,1.5-1.3c0.6-0.4,1.3-0.5,2-0.5c1,0,2,0.3,2.9,0.9c1,0.6,2,1.3,3.3,2c1.3,0.8,2.7,1.5,4.2,2
			c1.8,0.6,3.7,0.9,5.6,0.9c2.4,0.1,4.8-0.5,6.8-1.9c1.6-1.3,2.4-3.3,2.4-6.1c0.1-1.4-0.4-2.8-1.3-3.9c-1-1.1-2.1-2-3.5-2.6
			c-1.6-0.7-3.2-1.3-4.9-1.8c-1.8-0.5-3.7-1.1-5.6-1.7s-3.8-1.4-5.6-2.3c-1.8-0.9-3.5-2.1-4.9-3.5c-1.5-1.6-2.7-3.4-3.5-5.5
			c-1-2.6-1.4-5.3-1.3-8.1c0-2.6,0.5-5.2,1.6-7.6c1.1-2.5,2.6-4.7,4.6-6.6c2.1-2,4.7-3.6,7.4-4.6c3.2-1.2,6.6-1.8,10.1-1.7
			c2.1,0,4.1,0.2,6.2,0.5c1.9,0.3,3.8,0.8,5.7,1.5c1.7,0.6,3.4,1.4,5,2.3c1.5,0.8,2.9,1.8,4.2,3L357.4,49.5z"/>
		<path class="st0" d="M392.6,54.6c3.5,0,6.9,0.5,10.2,1.8c2.9,1.1,5.6,2.8,7.9,5c2.2,2.2,4,4.9,5.1,7.9c1.3,3.3,1.9,6.9,1.8,10.5
			c0.1,3.6-0.6,7.2-1.8,10.6c-1.1,3-2.9,5.7-5.1,8c-2.2,2.2-4.9,3.9-7.9,5.1c-3.2,1.2-6.7,1.8-10.2,1.8s-7-0.6-10.2-1.8
			c-3-1.1-5.7-2.8-7.9-5.1c-2.3-2.3-4-5-5.1-8c-1.3-3.4-1.9-7-1.8-10.6c-0.1-3.6,0.6-7.1,1.8-10.5c1.1-3,2.9-5.7,5.1-7.9
			c2.3-2.2,5-3.9,7.9-5C385.6,55.1,389.1,54.5,392.6,54.6z M392.6,94.2c3.4,0,5.8-1.2,7.4-3.6s2.4-6,2.4-10.8s-0.8-8.5-2.4-10.8
			c-1.6-2.4-4.1-3.5-7.4-3.5c-3.5,0-6,1.2-7.6,3.5c-1.6,2.4-2.4,6-2.4,10.8s0.8,8.5,2.4,10.8S389.1,94.2,392.6,94.2z"/>
		<path class="st0" d="M473.9,65.4v24.3c0,1,0.3,2,0.8,2.8c0.6,0.7,1.5,1.2,2.4,1.1c0.5,0,0.9,0,1.4-0.2c0.3-0.1,0.6-0.2,0.9-0.4
			l0.8-0.4c0.3-0.1,0.5-0.2,0.8-0.2c0.4,0,0.8,0.1,1.1,0.3c0.3,0.3,0.6,0.6,0.8,1l4.4,6.9c-1.9,1.4-4.1,2.5-6.4,3.2
			c-2.4,0.7-4.8,1.1-7.3,1.1c-2.1,0-4.2-0.3-6.2-1c-3.4-1.2-6.1-3.9-7.2-7.4c-0.7-1.9-1-3.9-1-5.9V65.4h-17.4v38.9h-14.6V65.4
			l-3.2-0.7c-1-0.2-1.9-0.6-2.7-1.2c-0.7-0.6-1.1-1.5-1-2.4v-5.8h6.9v-2.8c0-2.6,0.4-5.2,1.4-7.6c0.8-2.2,2.2-4.2,3.9-5.8
			c1.8-1.7,3.9-2.9,6.2-3.7c2.7-0.9,5.5-1.4,8.3-1.3c1.1,0,2.2,0.1,3.3,0.2c1.1,0.2,2.1,0.4,3.2,0.7l-0.3,7.1c0,0.9-0.5,1.6-1.2,2
			c-0.4,0.2-0.8,0.4-1.2,0.5c-0.4,0.1-0.8,0.1-1.2,0.1c-1.2,0-2.3,0.1-3.5,0.4c-0.9,0.2-1.8,0.7-2.5,1.3c-0.7,0.7-1.2,1.6-1.5,2.5
			c-0.4,1.3-0.6,2.6-0.5,4v2.3h18.5l2.9-12c0.3-1.5,1.7-2.5,3.2-2.3h7.6v14.3h12.1v10L473.9,65.4z"/>
		<path class="st0" d="M522.1,91.7c2,0,3.9-0.3,5.7-1.1c1.6-0.7,3.1-1.7,4.3-3c1.2-1.4,2.1-3.1,2.7-4.8c0.6-2.1,1-4.3,0.9-6.5V35.5
			h16v40.8c0,4-0.6,7.9-2,11.6c-1.3,3.4-3.3,6.5-5.9,9.1c-2.6,2.6-5.8,4.7-9.3,6c-8,2.8-16.7,2.8-24.7,0c-3.5-1.3-6.7-3.4-9.3-6
			c-2.6-2.6-4.6-5.7-5.9-9.1c-1.4-3.7-2.1-7.7-2-11.6V35.5h16v40.7c0,2.2,0.3,4.4,0.9,6.5c0.5,1.8,1.4,3.4,2.6,4.9
			c1.2,1.3,2.6,2.4,4.3,3.1C518.2,91.4,520.1,91.7,522.1,91.7z"/>
		<path class="st0" d="M574.3,60.6c0.9-0.9,1.9-1.7,2.9-2.5s2.1-1.4,3.2-1.9c1.2-0.5,2.4-1,3.7-1.3c1.4-0.3,2.9-0.5,4.4-0.5
			c2.4,0,4.9,0.5,7.1,1.5c2,0.9,3.8,2.2,5.2,3.9c1.5,1.7,2.5,3.7,3.2,5.9c0.7,2.4,1.1,4.9,1.1,7.4v31.1h-14.6v-31
			c0.1-2-0.5-4-1.7-5.6c-1.2-1.4-3-2.1-4.9-2c-1.6,0-3.1,0.3-4.5,1c-1.5,0.7-2.9,1.7-4.1,2.8v35h-14.6v-49h9.1
			c1.6-0.1,3.1,0.9,3.6,2.5L574.3,60.6z"/>
		<path class="st0" d="M631.1,41.9c0,1.1-0.2,2.3-0.7,3.3s-1.1,1.9-1.9,2.7c-0.8,0.8-1.8,1.4-2.9,1.8c-1.1,0.5-2.3,0.7-3.5,0.7
			s-2.3-0.2-3.3-0.7c-1-0.4-2-1.1-2.8-1.8c-0.8-0.8-1.4-1.7-1.9-2.7s-0.7-2.2-0.7-3.3c0-1.2,0.2-2.3,0.7-3.3c0.4-1,1.1-2,1.9-2.7
			c0.8-0.8,1.8-1.4,2.8-1.8c1.1-0.4,2.2-0.7,3.3-0.7c1.2,0,2.4,0.2,3.5,0.7c2.1,0.9,3.8,2.5,4.8,4.6
			C630.9,39.6,631.1,40.8,631.1,41.9z M629.6,55.3v49H615v-49C615,55.3,629.6,55.3,629.6,55.3z"/>
		<path class="st0" d="M335.3,148.8h2.5c2.4,0,4.1-0.7,5.1-2.2l15.5-22.5c0.8-1.1,1.8-1.9,3-2.5c1.3-0.5,2.6-0.7,3.9-0.7h13.9
			l-20.4,27.8c-1.2,1.7-2.8,3.1-4.7,4.2c1.2,0.4,2.3,1.1,3.3,1.8c1.1,0.9,2,1.9,2.7,3.1l20.8,31.9h-14.3c-0.8,0-1.6-0.1-2.3-0.2
			c-0.6-0.1-1.2-0.3-1.7-0.6c-0.5-0.2-0.9-0.5-1.2-0.9c-0.4-0.4-0.7-0.8-1-1.2l-15.6-23.9c-0.5-0.8-1.3-1.5-2.1-1.9
			c-1.1-0.4-2.3-0.6-3.5-0.5h-3.9v29.3h-16V121h16L335.3,148.8z"/>
		<path class="st0" d="M400.9,127.4c0,1.1-0.2,2.3-0.7,3.3c-0.5,1-1.1,1.9-1.9,2.7s-1.8,1.4-2.9,1.8c-1.1,0.5-2.3,0.7-3.5,0.7
			s-2.3-0.2-3.4-0.7c-1-0.4-2-1.1-2.8-1.8c-0.8-0.8-1.4-1.7-1.9-2.7s-0.7-2.2-0.7-3.3c0-1.2,0.2-2.3,0.7-3.3c0.4-1,1.1-2,1.9-2.7
			c0.8-0.8,1.7-1.4,2.8-1.8c1.1-0.4,2.2-0.7,3.4-0.7c1.2,0,2.4,0.2,3.5,0.7c2.1,0.8,3.8,2.5,4.8,4.6
			C400.7,125.1,400.9,126.2,400.9,127.4z M399.4,140.8v49h-14.6v-49H399.4z"/>
		<path class="st0" d="M454,119.1v70.7h-9.1c-1.6,0.1-3.1-0.9-3.6-2.5l-1.1-3.7c-1,1-2,2-3.1,2.8c-1.1,0.9-2.2,1.6-3.5,2.2
			c-1.3,0.6-2.6,1.1-4,1.4c-1.5,0.3-3.1,0.5-4.6,0.5c-2.5,0-4.9-0.6-7.1-1.7c-2.2-1.2-4.2-2.9-5.6-4.9c-1.7-2.4-2.9-5-3.7-7.9
			c-0.9-3.5-1.4-7-1.4-10.6c0-3.5,0.5-6.9,1.5-10.2c0.9-2.9,2.4-5.7,4.3-8.1c1.8-2.2,4.1-4.1,6.6-5.4c2.7-1.3,5.6-2,8.5-1.9
			c2.2-0.1,4.4,0.3,6.4,1.1c1.7,0.7,3.3,1.7,4.7,2.9V119L454,119.1z M439.4,153.9c-1-1.1-2.2-2-3.6-2.6c-1.3-0.5-2.7-0.7-4.1-0.7
			c-1.3,0-2.6,0.3-3.7,0.8c-1.2,0.6-2.2,1.5-3,2.6c-0.9,1.4-1.6,3-2,4.6c-0.5,2.2-0.7,4.5-0.7,6.9c0,2.2,0.2,4.4,0.6,6.5
			c0.3,1.5,0.8,2.9,1.6,4.3c0.6,1,1.4,1.8,2.4,2.3s2.1,0.7,3.2,0.7c1,0,2-0.1,2.9-0.3c0.8-0.2,1.6-0.5,2.4-0.9
			c0.7-0.4,1.4-0.9,2-1.4c0.7-0.6,1.3-1.3,1.9-2L439.4,153.9z"/>
		<path class="st0" d="M495.1,151.5c-0.3,0.5-0.7,1-1.2,1.3s-1.1,0.4-1.6,0.4c-0.7,0-1.4-0.2-2.1-0.4l-2.2-1c-0.9-0.4-1.8-0.7-2.7-1
			c-1.1-0.3-2.3-0.5-3.5-0.4c-1.5-0.1-3,0.3-4.3,1.1c-1,0.7-1.5,1.8-1.5,3c0,0.9,0.4,1.7,1,2.3c0.8,0.7,1.6,1.2,2.6,1.6
			c1.2,0.5,2.4,0.9,3.6,1.3c1.3,0.4,2.7,0.9,4.2,1.4c1.4,0.5,2.8,1.1,4.2,1.8c1.3,0.7,2.6,1.5,3.6,2.5c1.1,1,2,2.2,2.6,3.6
			c0.7,1.6,1,3.3,1,5.1c0,2.3-0.4,4.6-1.3,6.7c-0.9,2-2.2,3.9-3.9,5.3c-1.9,1.6-4.1,2.7-6.5,3.4c-2.9,0.9-5.9,1.3-8.9,1.2
			c-1.7,0-3.4-0.2-5-0.5s-3.3-0.7-4.8-1.3c-1.5-0.5-2.9-1.1-4.3-1.9c-1.2-0.7-2.4-1.5-3.4-2.4l3.4-5.4c0.4-0.6,0.8-1.1,1.4-1.5
			c0.7-0.4,1.5-0.6,2.2-0.5c0.8,0,1.6,0.2,2.3,0.6l2.2,1.2c0.9,0.5,1.8,0.9,2.8,1.2c1.3,0.4,2.6,0.6,4,0.6c1,0,1.9-0.1,2.9-0.4
			c0.7-0.2,1.3-0.5,1.9-1c0.9-0.7,1.4-1.8,1.4-2.9c0-0.9-0.3-1.8-1-2.4c-0.8-0.7-1.6-1.2-2.6-1.6c-1.2-0.5-2.4-0.9-3.7-1.3
			c-1.4-0.4-2.8-0.8-4.2-1.4c-1.4-0.5-2.8-1.1-4.2-1.8c-1.4-0.7-2.6-1.6-3.7-2.7c-1.1-1.2-2-2.5-2.6-4c-0.7-1.8-1-3.8-1-5.7
			c0-2,0.4-4.1,1.2-5.9c0.8-1.9,2.1-3.6,3.6-4.9c1.8-1.5,3.8-2.7,6-3.4c2.7-0.9,5.6-1.3,8.5-1.2c1.7,0,3.4,0.2,5.1,0.5
			c1.6,0.3,3.1,0.7,4.6,1.3c1.4,0.5,2.7,1.2,4,2c1.1,0.7,2.2,1.6,3.2,2.5L495.1,151.5z"/>
	</g>
</g>
<g>
	<path class="st0" d="M99.5,48.7L99.5,48.7c-2.7,1.7-6.1,2.8-10,3.1c-2.7,0.2-5.2,1-7.1,2.3c-2.4,1.5-3.7,3.6-3.7,5.7
		c0,2.2,1.4,4.2,3.9,5.7c4.7,2.8,12.3,2.8,17,0c2.1-1.3,3.4-2.9,3.8-4.7c0.5-2.4,2.1-4.6,4.7-6.2l0.1-0.1c2-1.3,5.2-1.3,7.2,0
		L138.2,69L156,57.6c-4.7-0.5-9-2-12.4-4.3c-8.2-5.5-8.2-14.3,0-19.8c4.2-2.9,10-4.5,16.1-4.6c6.2-0.1,12,1.4,16.3,4.2
		c3.3,2.1,5.4,4.8,6.2,7.7l18.5-10.6l-50-26.6c-7.6-4.1-16.7-4.1-24.4,0l-50,26.6l23,13.9C101.5,45.3,101.5,47.4,99.5,48.7z"/>
	<path class="st0" d="M150.5,144.7l50.3-25.8l-23.9-15.8c-2-1.3-2-3.3,0-4.6h0.1c2.6-1.7,6.1-2.7,9.9-3.1c2.7-0.2,5.2-1,7.1-2.3
		c2.4-1.5,3.7-3.6,3.7-5.7c0-2.2-1.4-4.2-3.9-5.7c-4.7-2.8-12.3-2.8-17,0c-2.1,1.3-3.4,2.9-3.8,4.7c-0.5,2.4-2.1,4.6-4.7,6.2
		l-0.1,0.1c-2,1.3-5.2,1.3-7.2,0l-22.7-14.6l-17.9,11.5c4.7,0.5,9.1,2,12.4,4.3c8.2,5.5,8.1,14.2,0,19.8c-4.2,2.9-10,4.5-16.1,4.6
		c-6.2,0.1-12-1.4-16.3-4.2c-3.3-2.1-5.4-4.8-6.2-7.7l-19.4,12.2l52.3,26.1C134.3,148.4,143.1,148.4,150.5,144.7z"/>
	<path class="st0" d="M274.7,69.5l-31.4-16.7c-0.4-0.2-0.8-0.4-1.1-0.6l-33.3-17.7l-24.4,14.3c-2,1.3-5.2,1.3-7.2,0h-0.1
		c-2.6-1.7-4.3-3.9-4.7-6.3c-0.3-1.7-1.6-3.3-3.5-4.6c-2.4-1.5-5.6-2.4-8.9-2.3c-3.4,0-6.5,0.9-8.9,2.5c-4.4,3-4.4,7.9,0,10.9
		c2,1.3,4.5,2.2,7.4,2.4c3.8,0.3,7.2,1.4,9.7,3l0.1,0.1c2,1.3,2,3.3,0,4.6l-22.9,14.6l17.6,11.2c0.9-3,3.2-5.8,6.7-7.9
		c8.7-5.3,22.3-5.3,31-0.1c4.5,2.7,7,6.4,7.1,10.3c0.1,4-2.3,7.7-6.7,10.5c-3.3,2.1-7.4,3.5-12,4l19.4,13.1l-7.8,4.1v40l-62.1,30.8
		h-0.1h-0.1L76.6,159l-1.8-40.4l-8.4-4.1l25.5-16.1c2-1.3,5.2-1.3,7.2,0h0.1c2.6,1.7,4.3,3.9,4.7,6.3c0.3,1.7,1.6,3.3,3.5,4.6
		c2.4,1.5,5.6,2.4,8.9,2.3c3.4,0,6.5-0.9,8.8-2.5c4.4-3,4.4-7.9,0-10.9c-2-1.4-4.5-2.2-7.4-2.4c-3.8-0.3-7.1-1.3-9.7-3l-0.1-0.1
		c-2-1.3-2-3.3,0-4.6l22.9-14.6l-17.5-11.3c-0.9,3-3.2,5.8-6.7,7.9c-8.7,5.3-22.3,5.3-31,0.1c-0.2-0.1-0.4-0.2-0.6-0.3
		c-4.1-2.7-6.5-6.2-6.5-10c-0.1-4,2.3-7.7,6.7-10.5c3.3-2.1,7.4-3.5,12-4l-19-10.8L2.6,69.5c-4.8,2.5-4.7,9.4,0.1,11.9l46.1,23.5
		v71.3l89.8,44.6l89.8-44.6v-71.3l13.2-6.7c0.3-0.2,0.7-0.4,1-0.5l31.8-16.2C279.4,78.9,279.5,72,274.7,69.5z"/>
</g>
</svg>
