<svg width="16" height="16" viewBox="0 0 16 16" fill="none" xmlns="http://www.w3.org/2000/svg">
<path d="M7.99325 1C4.31325 1 1.33325 3.98667 1.33325 7.66667C1.33325 11.3467 4.31325 14.3333 7.99325 14.3333C11.6799 14.3333 14.6666 11.3467 14.6666 7.66667C14.6666 3.98667 11.6799 1 7.99325 1ZM7.99992 13C5.05325 13 2.66659 10.6133 2.66659 7.66667C2.66659 4.72 5.05325 2.33333 7.99992 2.33333C10.9466 2.33333 13.3333 4.72 13.3333 7.66667C13.3333 10.6133 10.9466 13 7.99992 13Z" fill="#919191"/>
<path d="M8.33325 4.66675H7.33325V8.66675L10.8333 10.7667L11.3333 9.94675L8.33325 8.16675V4.66675Z" fill="#919191"/>
</svg>
